<svg width="16" height="16" viewBox="0 0 16 16" fill="none" xmlns="http://www.w3.org/2000/svg">
<path d="M13.3333 11.3333H14.6666V12.6667H1.33325V11.3333H2.66659V6.66666C2.66659 5.25217 3.22849 3.89562 4.22868 2.89543C5.22888 1.89523 6.58543 1.33333 7.99992 1.33333C9.41441 1.33333 10.771 1.89523 11.7712 2.89543C12.7713 3.89562 13.3333 5.25217 13.3333 6.66666V11.3333ZM11.9999 11.3333V6.66666C11.9999 5.6058 11.5785 4.58838 10.8283 3.83823C10.0782 3.08809 9.06078 2.66666 7.99992 2.66666C6.93905 2.66666 5.92164 3.08809 5.17149 3.83823C4.42135 4.58838 3.99992 5.6058 3.99992 6.66666V11.3333H11.9999ZM5.99992 14H9.99992V15.3333H5.99992V14Z" fill="#2D3A45"/>
</svg>
