<svg width="16" height="16" viewBox="0 0 16 16" fill="none" xmlns="http://www.w3.org/2000/svg">
<path d="M14 10L10 13.9973L2.668 14C2.49166 14.0007 2.32225 13.9314 2.19699 13.8073C2.07174 13.6831 2.00088 13.5143 2 13.338V2.662C2 2.29667 2.29667 2 2.662 2H13.338C13.7033 2 14 2.304 14 2.668V10ZM12.6667 3.33333H3.33333V12.6667H8.66667V9.33333C8.66669 9.17004 8.72664 9.01244 8.83514 8.89042C8.94365 8.76839 9.09317 8.69044 9.25533 8.67133L9.33333 8.66667L12.6667 8.666V3.33333ZM12.114 9.99933L10 10V12.1127L12.114 9.99933Z" fill="#2D3A45"/>
</svg>
