<svg width="17" height="15" viewBox="0 0 17 15" fill="none" xmlns="http://www.w3.org/2000/svg">
<g opacity="0.5">
<rect y="1" width="10.9091" height="9.45455" stroke="#2D3A45" stroke-width="1.4" stroke-linecap="round" stroke-linejoin="round"/>
<path fill-rule="evenodd" clip-rule="evenodd" d="M10.9092 4.63647H13.8183L16.0001 6.81829V10.4547H10.9092V4.63647V4.63647Z" stroke="#2D3A45" stroke-width="1.4" stroke-linecap="round" stroke-linejoin="round"/>
<path fill-rule="evenodd" clip-rule="evenodd" d="M3.27277 14.091C4.27693 14.091 5.09095 13.2769 5.09095 12.2728C5.09095 11.2686 4.27693 10.4546 3.27277 10.4546C2.26862 10.4546 1.45459 11.2686 1.45459 12.2728C1.45459 13.2769 2.26862 14.091 3.27277 14.091Z" stroke="#2D3A45" stroke-width="1.4" stroke-linecap="round" stroke-linejoin="round"/>
<path fill-rule="evenodd" clip-rule="evenodd" d="M12.7274 14.091C13.7315 14.091 14.5455 13.2769 14.5455 12.2728C14.5455 11.2686 13.7315 10.4546 12.7274 10.4546C11.7232 10.4546 10.9092 11.2686 10.9092 12.2728C10.9092 13.2769 11.7232 14.091 12.7274 14.091Z" stroke="#2D3A45" stroke-width="1.4" stroke-linecap="round" stroke-linejoin="round"/>
</g>
</svg>
