<svg width="16" height="16" viewBox="0 0 16 16" fill="none" xmlns="http://www.w3.org/2000/svg">
<path d="M7.26673 1.39996L13.8661 2.3433L14.8087 8.9433L8.68073 15.0713C8.55571 15.1963 8.38617 15.2665 8.2094 15.2665C8.03262 15.2665 7.86308 15.1963 7.73806 15.0713L1.13806 8.4713C1.01308 8.34628 0.942871 8.17674 0.942871 7.99996C0.942871 7.82319 1.01308 7.65365 1.13806 7.52863L7.26673 1.39996ZM7.73806 2.81463L2.55206 7.99996L8.2094 13.6566L13.3947 8.4713L12.6881 3.5213L7.73806 2.81463ZM9.15139 7.0573C8.9013 6.80711 8.76083 6.46782 8.76089 6.11406C8.76092 5.9389 8.79545 5.76546 8.86251 5.60364C8.92957 5.44182 9.02785 5.2948 9.15173 5.17096C9.27561 5.04713 9.42267 4.9489 9.58451 4.8819C9.74635 4.8149 9.9198 4.78043 10.095 4.78046C10.4487 4.78052 10.788 4.92111 11.0381 5.1713C11.2882 5.42148 11.4286 5.76078 11.4286 6.11453C11.4285 6.46829 11.2879 6.80753 11.0377 7.05763C10.7875 7.30773 10.4482 7.4482 10.0945 7.44814C9.74074 7.44807 9.40149 7.30748 9.15139 7.0573Z" fill="#2D3A45"/>
</svg>
